<svg xmlns="http://www.w3.org/2000/svg" viewBox="0 0 512 512">
<defs>
<radialGradient id="bg" cx="50%" cy="44%" r="70%"><stop offset="0" stop-color="#26313f"/><stop offset=".55" stop-color="#141b24"/><stop offset="1" stop-color="#07090d"/></radialGradient>
<radialGradient id="glow" cx="50%" cy="50%" r="50%"><stop offset=".48" stop-color="#ffaa3c" stop-opacity="0"/><stop offset=".64" stop-color="#ffaa3c" stop-opacity=".3"/><stop offset=".8" stop-color="#ffaa3c" stop-opacity=".07"/><stop offset="1" stop-color="#ffaa3c" stop-opacity="0"/></radialGradient>
<radialGradient id="lens" cx="42%" cy="38%" r="62%"><stop offset="0" stop-color="#2c3b4f"/><stop offset="1" stop-color="#0a0e14"/></radialGradient>
<linearGradient id="amb" x1="0" y1="0" x2="0" y2="1"><stop offset="0" stop-color="#ffc56e"/><stop offset="1" stop-color="#ff9a24"/></linearGradient>
</defs>
<rect width="512" height="512" fill="url(#bg)"/>
<circle cx="256" cy="256" r="236" fill="url(#glow)"/>
<circle cx="256" cy="256" r="120" fill="url(#lens)"/>
<g fill="url(#amb)">
<rect x="240" y="58" width="32" height="96" rx="6"/>
<rect x="240" y="358" width="32" height="96" rx="6"/>
<rect x="58" y="240" width="96" height="32" rx="6"/>
<rect x="358" y="240" width="96" height="32" rx="6"/>
</g>
<circle cx="256" cy="256" r="134" fill="none" stroke="url(#amb)" stroke-width="36"/>
<g fill="#ffcf8a">
<rect x="250" y="138" width="12" height="88" rx="3"/>
<rect x="250" y="286" width="12" height="88" rx="3"/>
<rect x="138" y="250" width="88" height="12" rx="3"/>
<rect x="286" y="250" width="88" height="12" rx="3"/>
</g>
<circle cx="256" cy="256" r="13" fill="#e9f2ff"/>
<path d="M150 178a134 134 0 0 1 64-50" fill="none" stroke="#cfe6ff" stroke-opacity=".75" stroke-width="9" stroke-linecap="round"/>
</svg>
